<?xml version="1.0" encoding="utf-8"?>
<!-- Generator: Adobe Illustrator 26.0.1, SVG Export Plug-In . SVG Version: 6.00 Build 0)  -->
<svg version="1.1" id="Layer_1" xmlns="http://www.w3.org/2000/svg" xmlns:xlink="http://www.w3.org/1999/xlink" x="0px" y="0px"
	 viewBox="0 0 100 94" style="enable-background:new 0 0 100 94;" xml:space="preserve">
<style type="text/css">
	.st0{fill:#FF9780;}
	.st1{fill:#752E93;}
</style>
<path class="st0" d="M80.5,81C80.5,81,80.5,81,80.5,81c0,17.4,19.4,17.4,19.4,0c0,0,0,0,0,0H80.5z"/>
<path class="st0" d="M20.2,25.3c0-6.3,8.3-6.6,16.9-6.5c10.3,0.1,21.9,3.6,23.3,6.7V10.3H20.2V25.3z"/>
<path class="st1" d="M0,72.7l12-7.8c4.9,15.8,44.1,22.2,44,1.8C55,54,35.8,53.7,27,50c-9-2.9-19.6-8.1-22.6-18.2
	c-2.4-9.5,0.9-20,8.7-25.2c11.2-8.5,34.2-8.8,46.5-1.6c6.2,3.4,10.3,7.8,12.5,13.1l-11.6,7.2c-5.7-12.6-38.7-18.5-40.2-0.2
	c0.2,8.7,10.6,10.5,17,12.6c12,3.7,20.2,4.7,30.1,14.3c9,9.5,5.9,27.5-3.7,34.5C46.6,99.7,8,95.6,0,72.7z M80.5,81
	c-0.3-13,20-13.2,19.4,0C100.3,94.1,80.2,94,80.5,81z"/>
</svg>
